<svg width="17" height="17" viewBox="0 0 17 17" fill="none" xmlns="http://www.w3.org/2000/svg">
<path fill-rule="evenodd" clip-rule="evenodd" d="M16.3969 1.28033C16.6898 0.987437 16.6898 0.512563 16.3969 0.21967C16.104 -0.0732233 15.6291 -0.0732233 15.3362 0.21967L8.30828 7.24762L1.28033 0.21967C0.987437 -0.0732233 0.512563 -0.0732233 0.21967 0.21967C-0.0732233 0.512563 -0.0732233 0.987437 0.21967 1.28033L7.24762 8.30828L0.21967 15.3362C-0.0732233 15.6291 -0.0732233 16.104 0.21967 16.3969C0.512563 16.6898 0.987437 16.6898 1.28033 16.3969L8.30828 9.36894L15.3362 16.3969C15.6291 16.6898 16.104 16.6898 16.3969 16.3969C16.6898 16.104 16.6898 15.6291 16.3969 15.3362L9.36894 8.30828L16.3969 1.28033Z" fill="currentColor"/>
</svg>
