<svg width="18" height="17" viewBox="0 0 18 17" fill="none" xmlns="http://www.w3.org/2000/svg">
<path d="M9 4.5C4 4.5 2 9 2 9C2 9 4 13.5 9 13.5C14 13.5 16 9 16 9C16 9 14 4.5 9 4.5Z" stroke="currentColor" stroke-width="1.5" stroke-linecap="round" stroke-linejoin="round"/>
<path d="M9 11.5C10.3807 11.5 11.5 10.3807 11.5 9C11.5 7.61929 10.3807 6.5 9 6.5C7.61929 6.5 6.5 7.61929 6.5 9C6.5 10.3807 7.61929 11.5 9 11.5Z" stroke="currentColor" stroke-width="1.5" stroke-linecap="round" stroke-linejoin="round"/>
<path d="M1 1C7.24839 6.85786 10.7516 10.1421 17 16" stroke="currentColor" stroke-width="1.5" stroke-linecap="round"/>
</svg>
